# MagicaVoxel @ Ephtracy

# group
o 

# material
mtllib FLAT CHICKEN.mtl
usemtl palette

# normals
vn -1 0 0
vn 1 0 0
vn 0 0 1
vn 0 0 -1
vn 0 -1 0
vn 0 1 0

# texcoords
vt 0.0683594 0.5
vt 0.841797 0.5
vt 0.876953 0.5
vt 0.958984 0.5
vt 0.994141 0.5

# verts
v -2 1.5 1
v -2 1.5 -1.2
v -2 1.6 1
v -2 1.6 -1.2
v -1.2 1.5 -1.2
v -1.2 1.5 -1.6
v -1.2 1.6 0.6
v -1.2 1.6 0.0999999
v -1.2 1.6 -1.2
v -1.2 1.6 -1.6
v -1.2 1.7 0.6
v -1.2 1.7 0.0999999
v -1.1 1.6 0.0999999
v -1.1 1.6 -1.1
v -1.1 1.7 0.0999999
v -1.1 1.7 -1.1
v -0.6 1.5 -1.6
v -0.6 1.5 -2
v -0.6 1.6 -1.1
v -0.6 1.6 -1.6
v -0.6 1.7 -1.1
v -0.6 1.7 -2
v -0.4 1.5 2
v -0.4 1.5 1
v -0.4 1.6 2
v -0.4 1.6 1
v 0.4 1.5 2
v 0.4 1.5 1
v 0.4 1.6 2
v 0.4 1.6 1
v 0.6 1.5 -1.6
v 0.6 1.5 -2
v 0.6 1.6 -1.1
v 0.6 1.6 -1.6
v 0.6 1.7 -1.1
v 0.6 1.7 -2
v 1.1 1.6 0.0999999
v 1.1 1.6 -1.1
v 1.1 1.7 0.0999999
v 1.1 1.7 -1.1
v 1.2 1.5 -1.2
v 1.2 1.5 -1.6
v 1.2 1.6 0.6
v 1.2 1.6 0.0999999
v 1.2 1.6 -1.2
v 1.2 1.6 -1.6
v 1.2 1.7 0.6
v 1.2 1.7 0.0999999
v 2 1.5 1
v 2 1.5 -1.2
v 2 1.6 1
v 2 1.6 -1.2
v -0.4 1.5 2
v -0.4 1.6 2
v 0.4 1.5 2
v 0.4 1.6 2
v -2 1.5 1
v -2 1.6 1
v -0.4 1.5 1
v -0.4 1.6 1
v 0.4 1.5 1
v 0.4 1.6 1
v 2 1.5 1
v 2 1.6 1
v -1.2 1.6 0.6
v -1.2 1.7 0.6
v -1.1 1.6 0.6
v -1.1 1.7 0.6
v 1.1 1.6 0.6
v 1.1 1.7 0.6
v 1.2 1.6 0.6
v 1.2 1.7 0.6
v -1.2 1.6 0.0999999
v -1.2 1.7 0.0999999
v -1.1 1.6 0.0999999
v -1.1 1.7 0.0999999
v 1.1 1.6 0.0999999
v 1.1 1.7 0.0999999
v 1.2 1.6 0.0999999
v 1.2 1.7 0.0999999
v -1.1 1.6 -1.1
v -1.1 1.7 -1.1
v -0.6 1.6 -1.1
v -0.6 1.7 -1.1
v 0.6 1.6 -1.1
v 0.6 1.7 -1.1
v 1.1 1.6 -1.1
v 1.1 1.7 -1.1
v -2 1.5 -1.2
v -2 1.6 -1.2
v -1.2 1.5 -1.2
v -1.2 1.6 -1.2
v 1.2 1.5 -1.2
v 1.2 1.6 -1.2
v 2 1.5 -1.2
v 2 1.6 -1.2
v -1.2 1.5 -1.6
v -1.2 1.6 -1.6
v -0.6 1.5 -1.6
v -0.6 1.6 -1.6
v 0.6 1.5 -1.6
v 0.6 1.6 -1.6
v 1.2 1.5 -1.6
v 1.2 1.6 -1.6
v -0.6 1.5 -2
v -0.6 1.7 -2
v 0.6 1.5 -2
v 0.6 1.7 -2
v -0.4 1.5 2
v 0.4 1.5 2
v -2 1.5 1
v -0.4 1.5 1
v 0.4 1.5 1
v 2 1.5 1
v -1.2 1.5 0.6
v -1.1 1.5 0.6
v 1.1 1.5 0.6
v 1.2 1.5 0.6
v -0.3 1.5 0.3
v 0.3 1.5 0.3
v -1.2 1.5 0.0999999
v -1.1 1.5 0.0999999
v 1.1 1.5 0.0999999
v 1.2 1.5 0.0999999
v -0.3 1.5 -0.9
v 0.3 1.5 -0.9
v -2 1.5 -1.2
v -1.2 1.5 -1.2
v 1.2 1.5 -1.2
v 2 1.5 -1.2
v -1.2 1.5 -1.6
v -0.6 1.5 -1.6
v 0.6 1.5 -1.6
v 1.2 1.5 -1.6
v -0.6 1.5 -2
v 0.6 1.5 -2
v -0.4 1.6 2
v 0.4 1.6 2
v -2 1.6 1
v -0.4 1.6 1
v 0.4 1.6 1
v 2 1.6 1
v -1.2 1.6 0.6
v -1.1 1.6 0.6
v 1.1 1.6 0.6
v 1.2 1.6 0.6
v -1.2 1.6 0.0999999
v -1.1 1.6 0.0999999
v 1.1 1.6 0.0999999
v 1.2 1.6 0.0999999
v -1.1 1.6 -1.1
v -0.6 1.6 -1.1
v 0.6 1.6 -1.1
v 1.1 1.6 -1.1
v -2 1.6 -1.2
v -1.2 1.6 -1.2
v 1.2 1.6 -1.2
v 2 1.6 -1.2
v -1.2 1.6 -1.6
v -0.6 1.6 -1.6
v 0.6 1.6 -1.6
v 1.2 1.6 -1.6
v -1.2 1.7 0.6
v -1.1 1.7 0.6
v 1.1 1.7 0.6
v 1.2 1.7 0.6
v -0.3 1.7 0.3
v 0.3 1.7 0.3
v -1.2 1.7 0.0999999
v -1.1 1.7 0.0999999
v 1.1 1.7 0.0999999
v 1.2 1.7 0.0999999
v -0.3 1.7 -0.9
v 0.3 1.7 -0.9
v -1.1 1.7 -1.1
v -0.6 1.7 -1.1
v 0.6 1.7 -1.1
v 1.1 1.7 -1.1
v -0.6 1.7 -2
v 0.6 1.7 -2

# faces
f 3/4/1 2/4/1 1/4/1
f 4/4/1 2/4/1 3/4/1
f 9/4/1 6/4/1 5/4/1
f 10/4/1 6/4/1 9/4/1
f 11/5/1 8/5/1 7/5/1
f 12/5/1 8/5/1 11/5/1
f 15/4/1 14/4/1 13/4/1
f 16/4/1 14/4/1 15/4/1
f 20/4/1 18/4/1 17/4/1
f 21/4/1 20/4/1 19/4/1
f 22/4/1 18/4/1 20/4/1
f 22/4/1 20/4/1 21/4/1
f 25/1/1 24/1/1 23/1/1
f 26/1/1 24/1/1 25/1/1
f 27/1/2 28/1/2 29/1/2
f 29/1/2 28/1/2 30/1/2
f 31/4/2 32/4/2 34/4/2
f 33/4/2 34/4/2 35/4/2
f 34/4/2 32/4/2 36/4/2
f 35/4/2 34/4/2 36/4/2
f 37/4/2 38/4/2 39/4/2
f 39/4/2 38/4/2 40/4/2
f 41/4/2 42/4/2 45/4/2
f 45/4/2 42/4/2 46/4/2
f 43/5/2 44/5/2 47/5/2
f 47/5/2 44/5/2 48/5/2
f 49/4/2 50/4/2 51/4/2
f 51/4/2 50/4/2 52/4/2
f 55/1/3 54/1/3 53/1/3
f 56/1/3 54/1/3 55/1/3
f 59/4/3 58/4/3 57/4/3
f 60/4/3 58/4/3 59/4/3
f 63/4/3 62/4/3 61/4/3
f 64/4/3 62/4/3 63/4/3
f 67/5/3 66/5/3 65/5/3
f 68/5/3 66/5/3 67/5/3
f 69/4/3 68/4/3 67/4/3
f 70/4/3 68/4/3 69/4/3
f 71/5/3 70/5/3 69/5/3
f 72/5/3 70/5/3 71/5/3
f 73/5/4 74/5/4 75/5/4
f 75/5/4 74/5/4 76/5/4
f 77/5/4 78/5/4 79/5/4
f 79/5/4 78/5/4 80/5/4
f 81/4/4 82/4/4 83/4/4
f 83/4/4 82/4/4 84/4/4
f 85/4/4 86/4/4 87/4/4
f 87/4/4 86/4/4 88/4/4
f 89/4/4 90/4/4 91/4/4
f 91/4/4 90/4/4 92/4/4
f 93/4/4 94/4/4 95/4/4
f 95/4/4 94/4/4 96/4/4
f 97/4/4 98/4/4 99/4/4
f 99/4/4 98/4/4 100/4/4
f 101/4/4 102/4/4 103/4/4
f 103/4/4 102/4/4 104/4/4
f 105/4/4 106/4/4 107/4/4
f 107/4/4 106/4/4 108/4/4
f 112/1/5 110/1/5 109/1/5
f 113/1/5 110/1/5 112/1/5
f 115/4/5 112/4/5 111/4/5
f 115/4/5 114/4/5 113/4/5
f 115/4/5 113/4/5 112/4/5
f 116/4/5 114/4/5 115/4/5
f 117/4/5 114/4/5 116/4/5
f 118/4/5 114/4/5 117/4/5
f 119/4/5 117/4/5 116/4/5
f 120/4/5 117/4/5 119/4/5
f 121/4/5 115/4/5 111/4/5
f 121/3/5 116/3/5 115/3/5
f 122/4/5 119/4/5 116/4/5
f 122/3/5 116/3/5 121/3/5
f 123/4/5 117/4/5 120/4/5
f 123/3/5 118/3/5 117/3/5
f 124/4/5 114/4/5 118/4/5
f 124/3/5 118/3/5 123/3/5
f 125/4/5 119/4/5 122/4/5
f 125/2/5 120/2/5 119/2/5
f 125/4/5 122/4/5 121/4/5
f 126/4/5 124/4/5 123/4/5
f 126/2/5 120/2/5 125/2/5
f 126/4/5 123/4/5 120/4/5
f 127/4/5 125/4/5 121/4/5
f 127/4/5 121/4/5 111/4/5
f 127/4/5 126/4/5 125/4/5
f 128/4/5 126/4/5 127/4/5
f 129/4/5 114/4/5 124/4/5
f 129/4/5 126/4/5 128/4/5
f 129/4/5 124/4/5 126/4/5
f 130/4/5 114/4/5 129/4/5
f 131/4/5 129/4/5 128/4/5
f 132/4/5 129/4/5 131/4/5
f 133/4/5 129/4/5 132/4/5
f 134/4/5 129/4/5 133/4/5
f 135/4/5 133/4/5 132/4/5
f 136/4/5 133/4/5 135/4/5
f 137/1/6 138/1/6 140/1/6
f 140/1/6 138/1/6 141/1/6
f 139/4/6 140/4/6 143/4/6
f 141/4/6 142/4/6 143/4/6
f 140/4/6 141/4/6 143/4/6
f 143/4/6 142/4/6 144/4/6
f 144/4/6 142/4/6 145/4/6
f 145/4/6 142/4/6 146/4/6
f 139/4/6 143/4/6 147/4/6
f 146/4/6 142/4/6 150/4/6
f 147/4/6 148/4/6 151/4/6
f 149/4/6 150/4/6 154/4/6
f 151/4/6 152/4/6 155/4/6
f 139/4/6 147/4/6 155/4/6
f 147/4/6 151/4/6 155/4/6
f 155/4/6 152/4/6 156/4/6
f 153/4/6 154/4/6 157/4/6
f 154/4/6 150/4/6 157/4/6
f 150/4/6 142/4/6 157/4/6
f 157/4/6 142/4/6 158/4/6
f 156/4/6 152/4/6 159/4/6
f 159/4/6 152/4/6 160/4/6
f 153/4/6 157/4/6 161/4/6
f 161/4/6 157/4/6 162/4/6
f 164/4/6 165/4/6 167/4/6
f 167/4/6 165/4/6 168/4/6
f 163/5/6 164/5/6 169/5/6
f 164/4/6 167/4/6 170/4/6
f 169/5/6 164/5/6 170/5/6
f 168/4/6 165/4/6 171/4/6
f 165/5/6 166/5/6 171/5/6
f 171/5/6 166/5/6 172/5/6
f 170/4/6 167/4/6 173/4/6
f 167/2/6 168/2/6 173/2/6
f 168/4/6 171/4/6 174/4/6
f 173/2/6 168/2/6 174/2/6
f 170/4/6 173/4/6 175/4/6
f 173/4/6 174/4/6 175/4/6
f 175/4/6 174/4/6 176/4/6
f 174/4/6 171/4/6 177/4/6
f 176/4/6 174/4/6 177/4/6
f 177/4/6 171/4/6 178/4/6
f 176/4/6 177/4/6 179/4/6
f 179/4/6 177/4/6 180/4/6
