# MagicaVoxel @ Ephtracy

# group
o 

# material
mtllib Chicken White 2.mtl
usemtl palette

# normals
vn -1 0 0
vn 1 0 0
vn 0 0 1
vn 0 0 -1
vn 0 -1 0
vn 0 1 0

# texcoords
vt 0.0683594 0.5
vt 0.306641 0.5
vt 0.841797 0.5
vt 0.876953 0.5
vt 0.958984 0.5

# verts
v -2 1.1 1
v -2 1.1 -1.2
v -2 1.6 1
v -2 1.6 -1.2
v -1.2 0.7 1
v -1.2 0.7 -1.6
v -1.2 1.1 1
v -1.2 1.1 -1.2
v -1.2 1.6 1
v -1.2 1.6 -1.2
v -1.2 1.9 -1.1
v -1.2 1.9 -1.6
v -1.2 2.8 0.6
v -1.2 2.8 0.0999999
v -1.2 3.3 0.6
v -1.2 3.3 0.0999999
v -1.2 3.7 1
v -1.2 3.7 -1.1
v -0.8 0 0.4
v -0.8 0 -0.3
v -0.8 0.1 0.4
v -0.8 0.1 -0.3
v -0.6 0.1 -2.38419e-07
v -0.6 0.1 -0.2
v -0.6 0.7 -2.38419e-07
v -0.6 0.7 -0.2
v -0.6 0.7 -1.6
v -0.6 0.7 -2
v -0.6 1.9 -1.6
v -0.6 1.9 -2
v -0.4 2 1.5
v -0.4 2 1
v -0.4 2.3 2
v -0.4 2.3 1.5
v -0.4 2.3 1
v -0.4 3 2
v -0.4 3 1
v -0.3 3.7 0.3
v -0.3 3.7 -0.9
v -0.3 4 0.3
v -0.3 4 -0.9
v 0.2 0 0.4
v 0.2 0 -0.3
v 0.2 0.1 0.4
v 0.2 0.1 -0.3
v 0.4 0.1 -2.38419e-07
v 0.4 0.1 -0.2
v 0.4 0.7 -2.38419e-07
v 0.4 0.7 -0.2
v -0.4 0.1 -2.38419e-07
v -0.4 0.1 -0.2
v -0.4 0.7 -2.38419e-07
v -0.4 0.7 -0.2
v -0.2 0 0.4
v -0.2 0 -0.3
v -0.2 0.1 0.4
v -0.2 0.1 -0.3
v 0.3 3.7 0.3
v 0.3 3.7 -0.9
v 0.3 4 0.3
v 0.3 4 -0.9
v 0.4 2 1.5
v 0.4 2 1
v 0.4 2.3 2
v 0.4 2.3 1.5
v 0.4 2.3 1
v 0.4 3 2
v 0.4 3 1
v 0.6 0.1 -2.38419e-07
v 0.6 0.1 -0.2
v 0.6 0.7 -2.38419e-07
v 0.6 0.7 -0.2
v 0.6 0.7 -1.6
v 0.6 0.7 -2
v 0.6 1.9 -1.6
v 0.6 1.9 -2
v 0.8 0 0.4
v 0.8 0 -0.3
v 0.8 0.1 0.4
v 0.8 0.1 -0.3
v 1.2 0.7 1
v 1.2 0.7 -1.6
v 1.2 1.1 1
v 1.2 1.1 -1.2
v 1.2 1.6 1
v 1.2 1.6 -1.2
v 1.2 1.9 -1.1
v 1.2 1.9 -1.6
v 1.2 2.9 0.6
v 1.2 2.9 0.0999999
v 1.2 3.4 0.6
v 1.2 3.4 0.0999999
v 1.2 3.7 1
v 1.2 3.7 -1.1
v 2 1.1 1
v 2 1.1 -1.2
v 2 1.6 1
v 2 1.6 -1.2
v -0.4 2.3 2
v -0.4 3 2
v 0.4 2.3 2
v 0.4 3 2
v -0.4 2 1.5
v -0.4 2.3 1.5
v 0.4 2 1.5
v 0.4 2.3 1.5
v -2 1.1 1
v -2 1.6 1
v -1.2 0.7 1
v -1.2 1.1 1
v -1.2 1.6 1
v -1.2 3.7 1
v -0.4 2 1
v -0.4 2.3 1
v -0.4 3 1
v 0.4 2 1
v 0.4 2.3 1
v 0.4 3 1
v 1.2 0.7 1
v 1.2 1.1 1
v 1.2 1.6 1
v 1.2 3.7 1
v 2 1.1 1
v 2 1.6 1
v -0.8 0 0.4
v -0.8 0.1 0.4
v -0.2 0 0.4
v -0.2 0.1 0.4
v 0.2 0 0.4
v 0.2 0.1 0.4
v 0.8 0 0.4
v 0.8 0.1 0.4
v -0.3 3.7 0.3
v -0.3 4 0.3
v 0.3 3.7 0.3
v 0.3 4 0.3
v -0.6 0.1 -2.38419e-07
v -0.6 0.7 -2.38419e-07
v -0.4 0.1 -2.38419e-07
v -0.4 0.7 -2.38419e-07
v 0.4 0.1 -2.38419e-07
v 0.4 0.7 -2.38419e-07
v 0.6 0.1 -2.38419e-07
v 0.6 0.7 -2.38419e-07
v -0.6 0.1 -0.2
v -0.6 0.7 -0.2
v -0.4 0.1 -0.2
v -0.4 0.7 -0.2
v 0.4 0.1 -0.2
v 0.4 0.7 -0.2
v 0.6 0.1 -0.2
v 0.6 0.7 -0.2
v -0.8 0 -0.3
v -0.8 0.1 -0.3
v -0.2 0 -0.3
v -0.2 0.1 -0.3
v 0.2 0 -0.3
v 0.2 0.1 -0.3
v 0.8 0 -0.3
v 0.8 0.1 -0.3
v -0.3 3.7 -0.9
v -0.3 4 -0.9
v 0.3 3.7 -0.9
v 0.3 4 -0.9
v -1.2 1.9 -1.1
v -1.2 3.7 -1.1
v 1.2 1.9 -1.1
v 1.2 3.7 -1.1
v -2 1.1 -1.2
v -2 1.6 -1.2
v -1.2 1.1 -1.2
v -1.2 1.6 -1.2
v 1.2 1.1 -1.2
v 1.2 1.6 -1.2
v 2 1.1 -1.2
v 2 1.6 -1.2
v -1.2 0.7 -1.6
v -1.2 1.9 -1.6
v -0.6 0.7 -1.6
v -0.6 1.9 -1.6
v 0.6 0.7 -1.6
v 0.6 1.9 -1.6
v 1.2 0.7 -1.6
v 1.2 1.9 -1.6
v -0.6 0.7 -2
v -0.6 1.9 -2
v 0.6 0.7 -2
v 0.6 1.9 -2
v -0.8 0 0.4
v -0.2 0 0.4
v 0.2 0 0.4
v 0.8 0 0.4
v -0.8 0 -0.3
v -0.2 0 -0.3
v 0.2 0 -0.3
v 0.8 0 -0.3
v -1.2 0.7 1
v 1.2 0.7 1
v -0.6 0.7 -2.38419e-07
v -0.4 0.7 -2.38419e-07
v 0.4 0.7 -2.38419e-07
v 0.6 0.7 -2.38419e-07
v -0.6 0.7 -0.2
v -0.4 0.7 -0.2
v 0.4 0.7 -0.2
v 0.6 0.7 -0.2
v -1.2 0.7 -1.6
v -0.6 0.7 -1.6
v 0.6 0.7 -1.6
v 1.2 0.7 -1.6
v -0.6 0.7 -2
v 0.6 0.7 -2
v -2 1.1 1
v -1.2 1.1 1
v 1.2 1.1 1
v 2 1.1 1
v -2 1.1 -1.2
v -1.2 1.1 -1.2
v 1.2 1.1 -1.2
v 2 1.1 -1.2
v -0.4 2 1.5
v 0.4 2 1.5
v -0.4 2 1
v 0.4 2 1
v -0.4 2.3 2
v 0.4 2.3 2
v -0.4 2.3 1.5
v 0.4 2.3 1.5
v -0.8 0.1 0.4
v -0.2 0.1 0.4
v 0.2 0.1 0.4
v 0.8 0.1 0.4
v -0.6 0.1 -2.38419e-07
v -0.4 0.1 -2.38419e-07
v 0.4 0.1 -2.38419e-07
v 0.6 0.1 -2.38419e-07
v -0.6 0.1 -0.2
v -0.4 0.1 -0.2
v 0.4 0.1 -0.2
v 0.6 0.1 -0.2
v -0.8 0.1 -0.3
v -0.2 0.1 -0.3
v 0.2 0.1 -0.3
v 0.8 0.1 -0.3
v -2 1.6 1
v -1.2 1.6 1
v 1.2 1.6 1
v 2 1.6 1
v -2 1.6 -1.2
v -1.2 1.6 -1.2
v 1.2 1.6 -1.2
v 2 1.6 -1.2
v -1.2 1.9 -1.1
v 1.2 1.9 -1.1
v -1.2 1.9 -1.6
v -0.6 1.9 -1.6
v 0.6 1.9 -1.6
v 1.2 1.9 -1.6
v -0.6 1.9 -2
v 0.6 1.9 -2
v -0.4 3 2
v 0.4 3 2
v -0.4 3 1
v 0.4 3 1
v -1.2 3.7 1
v 1.2 3.7 1
v -0.3 3.7 0.3
v 0.3 3.7 0.3
v -0.3 3.7 -0.9
v 0.3 3.7 -0.9
v -1.2 3.7 -1.1
v 1.2 3.7 -1.1
v -0.3 4 0.3
v 0.3 4 0.3
v -0.3 4 -0.9
v 0.3 4 -0.9

# faces
f 3/5/1 2/5/1 1/5/1
f 4/5/1 2/5/1 3/5/1
f 7/5/1 6/5/1 5/5/1
f 8/5/1 6/5/1 7/5/1
f 10/5/1 6/5/1 8/5/1
f 11/5/1 10/5/1 9/5/1
f 12/5/1 6/5/1 10/5/1
f 12/5/1 10/5/1 11/5/1
f 13/5/1 11/5/1 9/5/1
f 14/5/1 11/5/1 13/5/1
f 15/5/1 13/5/1 9/5/1
f 15/4/1 14/4/1 13/4/1
f 16/5/1 11/5/1 14/5/1
f 16/4/1 14/4/1 15/4/1
f 17/5/1 15/5/1 9/5/1
f 17/5/1 16/5/1 15/5/1
f 18/5/1 11/5/1 16/5/1
f 18/5/1 16/5/1 17/5/1
f 21/1/1 20/1/1 19/1/1
f 22/1/1 20/1/1 21/1/1
f 25/1/1 24/1/1 23/1/1
f 26/1/1 24/1/1 25/1/1
f 29/5/1 28/5/1 27/5/1
f 30/5/1 28/5/1 29/5/1
f 34/3/1 32/3/1 31/3/1
f 35/3/1 32/3/1 34/3/1
f 36/1/1 34/1/1 33/1/1
f 36/1/1 35/1/1 34/1/1
f 37/1/1 35/1/1 36/1/1
f 40/3/1 39/3/1 38/3/1
f 41/3/1 39/3/1 40/3/1
f 44/1/1 43/1/1 42/1/1
f 45/1/1 43/1/1 44/1/1
f 48/1/1 47/1/1 46/1/1
f 49/1/1 47/1/1 48/1/1
f 50/1/2 51/1/2 52/1/2
f 52/1/2 51/1/2 53/1/2
f 54/1/2 55/1/2 56/1/2
f 56/1/2 55/1/2 57/1/2
f 58/3/2 59/3/2 60/3/2
f 60/3/2 59/3/2 61/3/2
f 62/3/2 63/3/2 65/3/2
f 65/3/2 63/3/2 66/3/2
f 64/1/2 65/1/2 67/1/2
f 65/1/2 66/1/2 67/1/2
f 67/1/2 66/1/2 68/1/2
f 69/1/2 70/1/2 71/1/2
f 71/1/2 70/1/2 72/1/2
f 73/5/2 74/5/2 75/5/2
f 75/5/2 74/5/2 76/5/2
f 77/1/2 78/1/2 79/1/2
f 79/1/2 78/1/2 80/1/2
f 81/5/2 82/5/2 83/5/2
f 83/5/2 82/5/2 84/5/2
f 84/5/2 82/5/2 86/5/2
f 85/5/2 86/5/2 87/5/2
f 86/5/2 82/5/2 88/5/2
f 87/5/2 86/5/2 88/5/2
f 85/5/2 87/5/2 89/5/2
f 89/5/2 87/5/2 90/5/2
f 85/5/2 89/5/2 91/5/2
f 89/4/2 90/4/2 91/4/2
f 90/5/2 87/5/2 92/5/2
f 91/4/2 90/4/2 92/4/2
f 85/5/2 91/5/2 93/5/2
f 91/5/2 92/5/2 93/5/2
f 92/5/2 87/5/2 94/5/2
f 93/5/2 92/5/2 94/5/2
f 95/5/2 96/5/2 97/5/2
f 97/5/2 96/5/2 98/5/2
f 101/1/3 100/1/3 99/1/3
f 102/1/3 100/1/3 101/1/3
f 105/3/3 104/3/3 103/3/3
f 106/3/3 104/3/3 105/3/3
f 110/5/3 108/5/3 107/5/3
f 111/5/3 108/5/3 110/5/3
f 113/5/3 110/5/3 109/5/3
f 113/5/3 112/5/3 111/5/3
f 113/5/3 111/5/3 110/5/3
f 114/5/3 112/5/3 113/5/3
f 115/5/3 112/5/3 114/5/3
f 116/5/3 113/5/3 109/5/3
f 118/5/3 112/5/3 115/5/3
f 119/5/3 117/5/3 116/5/3
f 119/5/3 118/5/3 117/5/3
f 119/5/3 116/5/3 109/5/3
f 120/5/3 118/5/3 119/5/3
f 121/5/3 118/5/3 120/5/3
f 122/5/3 112/5/3 118/5/3
f 122/5/3 118/5/3 121/5/3
f 123/5/3 121/5/3 120/5/3
f 124/5/3 121/5/3 123/5/3
f 127/1/3 126/1/3 125/1/3
f 128/1/3 126/1/3 127/1/3
f 131/1/3 130/1/3 129/1/3
f 132/1/3 130/1/3 131/1/3
f 135/3/3 134/3/3 133/3/3
f 136/3/3 134/3/3 135/3/3
f 139/1/3 138/1/3 137/1/3
f 140/1/3 138/1/3 139/1/3
f 143/1/3 142/1/3 141/1/3
f 144/1/3 142/1/3 143/1/3
f 145/1/4 146/1/4 147/1/4
f 147/1/4 146/1/4 148/1/4
f 149/1/4 150/1/4 151/1/4
f 151/1/4 150/1/4 152/1/4
f 153/1/4 154/1/4 155/1/4
f 155/1/4 154/1/4 156/1/4
f 157/1/4 158/1/4 159/1/4
f 159/1/4 158/1/4 160/1/4
f 161/3/4 162/3/4 163/3/4
f 163/3/4 162/3/4 164/3/4
f 165/5/4 166/5/4 167/5/4
f 167/5/4 166/5/4 168/5/4
f 169/5/4 170/5/4 171/5/4
f 171/5/4 170/5/4 172/5/4
f 173/5/4 174/5/4 175/5/4
f 175/5/4 174/5/4 176/5/4
f 177/5/4 178/5/4 179/5/4
f 179/5/4 178/5/4 180/5/4
f 181/5/4 182/5/4 183/5/4
f 183/5/4 182/5/4 184/5/4
f 185/5/4 186/5/4 187/5/4
f 187/5/4 186/5/4 188/5/4
f 193/1/5 190/1/5 189/1/5
f 194/1/5 190/1/5 193/1/5
f 195/1/5 192/1/5 191/1/5
f 196/1/5 192/1/5 195/1/5
f 199/5/5 198/5/5 197/5/5
f 200/5/5 198/5/5 199/5/5
f 201/5/5 198/5/5 200/5/5
f 202/5/5 198/5/5 201/5/5
f 203/5/5 199/5/5 197/5/5
f 204/5/5 201/5/5 200/5/5
f 205/5/5 201/5/5 204/5/5
f 206/5/5 198/5/5 202/5/5
f 207/5/5 205/5/5 204/5/5
f 207/5/5 206/5/5 205/5/5
f 207/5/5 203/5/5 197/5/5
f 207/5/5 204/5/5 203/5/5
f 208/5/5 206/5/5 207/5/5
f 209/5/5 198/5/5 206/5/5
f 209/5/5 206/5/5 208/5/5
f 210/5/5 198/5/5 209/5/5
f 211/5/5 209/5/5 208/5/5
f 212/5/5 209/5/5 211/5/5
f 217/5/5 214/5/5 213/5/5
f 218/5/5 214/5/5 217/5/5
f 219/5/5 216/5/5 215/5/5
f 220/5/5 216/5/5 219/5/5
f 223/3/5 222/3/5 221/3/5
f 224/3/5 222/3/5 223/3/5
f 227/1/5 226/1/5 225/1/5
f 228/1/5 226/1/5 227/1/5
f 229/1/6 230/1/6 233/1/6
f 233/1/6 230/1/6 234/1/6
f 231/1/6 232/1/6 235/1/6
f 235/1/6 232/1/6 236/1/6
f 229/1/6 233/1/6 237/1/6
f 234/1/6 230/1/6 238/1/6
f 231/1/6 235/1/6 239/1/6
f 236/1/6 232/1/6 240/1/6
f 229/1/6 237/1/6 241/1/6
f 237/1/6 238/1/6 241/1/6
f 238/1/6 230/1/6 242/1/6
f 241/1/6 238/1/6 242/1/6
f 239/1/6 240/1/6 243/1/6
f 231/1/6 239/1/6 243/1/6
f 240/1/6 232/1/6 244/1/6
f 243/1/6 240/1/6 244/1/6
f 245/5/6 246/5/6 249/5/6
f 249/5/6 246/5/6 250/5/6
f 247/5/6 248/5/6 251/5/6
f 251/5/6 248/5/6 252/5/6
f 253/5/6 254/5/6 255/5/6
f 255/5/6 254/5/6 256/5/6
f 256/5/6 254/5/6 257/5/6
f 257/5/6 254/5/6 258/5/6
f 256/5/6 257/5/6 259/5/6
f 259/5/6 257/5/6 260/5/6
f 261/1/6 262/1/6 263/1/6
f 263/1/6 262/1/6 264/1/6
f 265/5/6 266/5/6 267/5/6
f 267/5/6 266/5/6 268/5/6
f 265/5/6 267/5/6 269/5/6
f 268/5/6 266/5/6 270/5/6
f 265/5/6 269/5/6 271/5/6
f 269/5/6 270/5/6 271/5/6
f 270/5/6 266/5/6 272/5/6
f 271/5/6 270/5/6 272/5/6
f 273/3/6 274/3/6 275/3/6
f 275/3/6 274/3/6 276/3/6
